<?xml version="1.0" encoding="UTF-8"?>
<svg id="Layer_1" data-name="Layer 1" xmlns="http://www.w3.org/2000/svg" viewBox="0 0 74.43 21.82">
  <defs>
    <style>
      .cls-1 {
        fill: #e9292c;
      }

      .cls-1, .cls-2 {
        stroke-width: 0px;
      }

      .cls-2 {
        fill: #000;
      }
    </style>
  </defs>
  <g>
    <path class="cls-1" d="M58.58,11.14l4.18,4.18-4.18,4.18s.01-8.37,0-8.36Z"/>
    <g>
      <path class="cls-2" d="M6.23,17.22c-1.68,0-3.09-.49-4.22-1.46-1.14-.97-1.8-2.26-2.01-3.86h2.45c.06,1.29.37,2.19.91,2.68.54.5,1.5.75,2.87.75,2.44,0,3.66-.88,3.66-2.64v-.93c0-.68-.22-1.16-.65-1.43-.44-.27-1.36-.51-2.78-.71l-1.12-.16c-1.45-.2-2.6-.72-3.46-1.56-.86-.84-1.29-1.86-1.29-3.06,0-1.32.53-2.46,1.59-3.41,1.06-.95,2.32-1.42,3.78-1.42,1.6,0,2.93.46,3.99,1.38,1.06.92,1.7,2.15,1.91,3.71h-2.45c-.05-1.2-.32-2.03-.83-2.5-.51-.47-1.38-.7-2.62-.7-2.12,0-3.17.82-3.17,2.45v.79c0,.73.23,1.26.69,1.57.46.32,1.35.58,2.67.78l1.12.16c3.22.48,4.83,1.95,4.83,4.41,0,1.43-.57,2.65-1.71,3.65-1.14,1-2.52,1.5-4.14,1.5Z"/>
      <path class="cls-2" d="M15.95,21.82l1.52-4.83h-1.84l-3.62-12.2h2.24l2.82,10.48h.93l3.01-10.48h2.24l-5.09,17.03h-2.22Z"/>
      <path class="cls-2" d="M29.19,4.55c1.28,0,2.33.45,3.16,1.35.83.9,1.25,2.05,1.25,3.45v7.63h-2.05v-7.86c0-.96-.24-1.66-.71-2.1-.47-.44-1.23-.65-2.27-.65-1.1,0-1.91.23-2.4.68-.5.45-.75,1.18-.75,2.19v7.75h-2.05V4.78h1.94v1.82c.98-1.37,2.28-2.05,3.9-2.05Z"/>
      <path class="cls-2" d="M39.7,4.55c1.38,0,2.5.41,3.35,1.24.85.82,1.27,1.91,1.27,3.24v7.96h-1.94v-1.38c-.78,1.07-1.98,1.61-3.62,1.61-1.23,0-2.27-.37-3.11-1.1-.85-.73-1.27-1.63-1.27-2.68s.42-1.84,1.26-2.47c.84-.64,1.92-.96,3.24-.96h3.38v-1.1c0-.93-.19-1.59-.57-1.97-.38-.38-1.07-.57-2.06-.57s-1.77.19-2.17.56c-.4.37-.63,1.03-.68,1.98h-2.1c.2-1.28.77-2.32,1.69-3.14.93-.82,2.03-1.22,3.32-1.22ZM39.18,15.4c1.07,0,1.85-.17,2.34-.51.49-.34.73-.89.73-1.63v-1.52h-3.97c-1.14,0-1.7.46-1.7,1.38v.65c0,.58.21.99.62,1.25.41.26,1.07.39,1.97.39Z"/>
      <path class="cls-2" d="M51.21,4.55c1.48,0,2.76.62,3.84,1.87,1.08,1.24,1.62,2.71,1.62,4.41s-.54,3.28-1.62,4.53c-1.08,1.24-2.39,1.87-3.93,1.87s-2.71-.65-3.73-1.94v6.53h-2.05V4.78h1.94v1.89c.44-.64,1.01-1.15,1.73-1.54.72-.39,1.45-.58,2.22-.58ZM54.38,11.83v-1.87c0-1.26-.28-2.17-.83-2.74-.55-.57-1.44-.85-2.67-.85s-2.12.28-2.67.85c-.55.57-.83,1.48-.83,2.74v1.87c0,1.24.28,2.15.83,2.72.55.57,1.44.85,2.67.85s2.12-.28,2.67-.85c.55-.57.83-1.47.83-2.72Z"/>
    </g>
    <polygon class="cls-2" points="58.67 1.64 58.67 4.78 56.01 4.78 56.01 6.51 58.67 6.51 58.67 9.87 60.73 11.92 60.73 6.51 63.98 6.51 63.98 4.78 60.73 4.78 60.73 1.64 58.67 1.64"/>
  </g>
  <g>
    <path class="cls-2" d="M70.71,18.69l-.41-1.6h-2.41l-.41,1.6h-1.43l1.92-6.81h2.32l1.9,6.81h-1.48ZM68.21,15.89h1.78l-.7-2.76h-.38l-.7,2.76Z"/>
    <path class="cls-2" d="M73.03,18.69v-6.81h1.39v6.81h-1.39Z"/>
  </g>
</svg>